<?xml version="1.0"?>
<svg xmlns="http://www.w3.org/2000/svg" xmlns:xlink="http://www.w3.org/1999/xlink" version="1.1" id="Capa_1" x="0px" y="0px" viewBox="0 0 512 512" style="enable-background:new 0 0 512 512;" xml:space="preserve" width="512px" height="512px"><g><g>
	<path d="M451.794,95.543V497c0,8.284,6.716,15,15,15H497c8.284,0,15-6.716,15-15V95.543c0-8.284-6.716-15-15-15h-30.206   C458.51,80.543,451.794,87.259,451.794,95.543z" data-original="#000000" class="active-path" data-old_color="#000000" fill="#233249"/>
	<path d="M361.426,15v401.457c0,8.284,6.716,15,15,15h30.205c8.284,0,15-6.716,15-15V15c0-8.284-6.716-15-15-15h-30.205   C368.142,0,361.426,6.716,361.426,15z" data-original="#000000" class="active-path" data-old_color="#000000" fill="#233249"/>
	<path d="M271.411,95.53l-0.34,401.457c-0.007,8.289,6.711,15.013,15,15.013h30.193c8.284,0,15-6.716,15-15V95.543   c0-8.284-6.716-15-15-15h-29.853C278.131,80.543,271.418,87.251,271.411,95.53z" data-original="#000000" class="active-path" data-old_color="#000000" fill="#233249"/>
	<path d="M90.322,95.543V497c0,8.284,6.716,15,15,15h30.206c8.284,0,15-6.716,15-15V95.543c0-8.284-6.716-15-15-15h-30.206   C97.037,80.543,90.322,87.259,90.322,95.543z" data-original="#000000" class="active-path" data-old_color="#000000" fill="#233249"/>
	<path d="M180.69,15v401.457c0,8.284,6.716,15,15,15h30.205c8.284,0,15-6.716,15-15V15c0-8.284-6.716-15-15-15H195.69   C187.406,0,180.69,6.716,180.69,15z" data-original="#000000" class="active-path" data-old_color="#000000" fill="#233249"/>
	<path d="M0,15v401.457c0,8.284,6.716,15,15,15h30.112c8.284,0,15-6.716,15-15V15c0-8.284-6.716-15-15-15H15C6.716,0,0,6.716,0,15z" data-original="#000000" class="active-path" data-old_color="#000000" fill="#233249"/>
</g></g> </svg>
